<svg xmlns="http://www.w3.org/2000/svg" xmlns:xlink="http://www.w3.org/1999/xlink" width="95.424" height="59.102" viewBox="0 0 95.424 59.102">
    <defs>
        <linearGradient id="linear-gradient" x1="0.5" y1="-1" x2="0.5" y2="1" gradientUnits="objectBoundingBox">
            <stop offset="0" stop-color="#1fd286"/>
            <stop offset="1" stop-color="#1fd286" stop-opacity="0"/>
        </linearGradient>
    </defs>
    <g id="ic-arrow-narrow-up" transform="translate(56.25 4)">
        <path id="Path_397" data-name="Path 397" d="M0,0H23.906V23.906H0Z" fill="none"/>
        <line id="Line_23" data-name="Line 23" y2="15.129" transform="translate(12.048 4.294)" fill="none" stroke="#3dd598" stroke-linecap="round" stroke-linejoin="round" stroke-width="2"/>
        <line id="Line_24" data-name="Line 24" x1="4.482" y1="4.482" transform="translate(12.07 4.336)" fill="none" stroke="#3dd598" stroke-linecap="round" stroke-linejoin="round" stroke-width="2"/>
        <line id="Line_25" data-name="Line 25" y1="4.482" x2="4.482" transform="translate(7.544 4.336)" fill="none" stroke="#3dd598" stroke-linecap="round" stroke-linejoin="round" stroke-width="2"/>
    </g>
    <text id="_2.5_" data-name="+2.5%" transform="translate(1.355 24)" fill="#2c3d63" font-size="23" font-family="Poppins-SemiBold, Poppins" font-weight="600" letter-spacing="0.006em"><tspan x="0" y="0">1.8%</tspan></text>
    <g id="Widgets__Elements_Chart_Mini_Chart" data-name="Widgets / _Elements / Chart / Mini Chart" transform="translate(0.173 31.154)">
        <g id="Chart_" data-name="Chart " transform="translate(0 0)">
            <path id="Path_4_Copy_6" data-name="Path 4 Copy 6" d="M0,18,11.833,8.4l11.833,4.2L35.5,7.2,47.333,0,59.166,3,71,4.8,82.832,0,94.665,8.4v17.4H0Z" transform="translate(0 1.842)" fill="url(#linear-gradient)"/>
            <path id="Path_4_Copy_8" data-name="Path 4 Copy 8" d="M0,27.636,11.833,12.9l11.833,6.448L35.5,11.054,47.333,0,59.166,4.606,71,7.369,82.832,0,94.665,12.9" transform="translate(0.217 0)" fill="none" stroke="#1fd286" stroke-miterlimit="10" stroke-width="1"/>
        </g>
    </g>
</svg>
